<svg width="44" height="42" viewBox="0 0 44 42" fill="none" xmlns="http://www.w3.org/2000/svg">
<path d="M20.7496 0.690982C21.0489 -0.230328 22.3524 -0.230327 22.6517 0.690983L27.089 14.3475C27.2229 14.7595 27.6068 15.0385 28.04 15.0385H42.3994C43.3681 15.0385 43.7709 16.2781 42.9872 16.8475L31.3702 25.2877C31.0197 25.5424 30.8731 25.9937 31.0069 26.4058L35.4442 40.0623C35.7436 40.9836 34.6891 41.7497 33.9054 41.1803L22.2884 32.7401C21.9379 32.4855 21.4633 32.4855 21.1129 32.7401L9.49591 41.1803C8.7122 41.7497 7.65772 40.9836 7.95707 40.0623L12.3944 26.4058C12.5282 25.9937 12.3816 25.5424 12.0311 25.2877L0.414131 16.8475C-0.369583 16.2781 0.0331947 15.0385 1.00192 15.0385H15.3613C15.7945 15.0385 16.1784 14.7595 16.3123 14.3475L20.7496 0.690982Z" fill="#FFD900"/>
</svg>
